<svg width="1489" height="783" viewBox="0 0 1489 783" fill="none" xmlns="http://www.w3.org/2000/svg">
<mask id="mask0_402_61" style="mask-type:alpha" maskUnits="userSpaceOnUse" x="0" y="0" width="1489" height="783">
<rect width="1903" height="1026" fill="#D9D9D9"/>
</mask>
<g mask="url(#mask0_402_61)">
<path d="M1477.96 -4.82426e-07C1482.26 -2.94526e-07 1484.56 5.06546 1481.72 8.29709L1462.69 30L1442.24 52.3727C1441.3 53.4095 1439.96 54.0001 1438.55 54.0001L56.8824 54C55.5865 54 54.3413 53.4969 53.4091 52.5967L30.0098 30L3.30763 8.92473C-0.41534 5.98629 1.66249 -6.50136e-05 6.40537 -6.48063e-05L1477.96 -4.82426e-07Z" fill="#192C4F"/>
<path d="M3.08529 783C-1.22116 783 -3.51309 777.919 -0.662661 774.691L18.4902 753L39.0798 730.615C40.0266 729.586 41.3613 729 42.7599 729L1433.71 729C1435 729 1436.24 729.499 1437.17 730.392L1460.74 753L1487.6 774.065C1491.34 776.997 1489.27 783 1484.52 783L3.08529 783Z" fill="#192C4F"/>
<path d="M1489 775.084C1489 778.758 1485.17 781.178 1481.85 779.599L1459 768.727L1437.78 758.21C1436.08 757.366 1435 755.63 1435 753.73L1435 8.02399C1435 6.21651 1435.98 4.54973 1437.55 3.66457L1459 -8.38282L1481.17 -23.6176C1484.49 -25.8976 1489 -23.5224 1489 -19.4969L1489 775.084Z" fill="#192C4F"/>
<path d="M6.57636e-07 775.478C3.45204e-07 779.051 3.64071 781.471 6.93581 780.088L32.7777 769.236L56.0037 759.077C57.8238 758.281 58.9999 756.483 58.9999 754.496L59 35.9819C59 34.0818 57.9231 32.346 56.2207 31.5021L32.7778 19.8809L7.59307 4.60542C4.26091 2.58435 6.80164e-05 4.98333 6.76757e-05 8.88051L6.57636e-07 775.478Z" fill="#192C4F"/>
</g>
</svg>
