<svg width="60" height="70" viewBox="0 0 60 70" fill="none" xmlns="http://www.w3.org/2000/svg">
<path d="M23.3333 63.3333H36.6667C36.6667 67 33.6667 70 30 70C26.3333 70 23.3333 67 23.3333 63.3333ZM60 56.6667V60H0V56.6667L6.66667 50V30C6.66667 19.6667 13.3333 10.6667 23.3333 7.66667V6.66667C23.3333 3 26.3333 0 30 0C33.6667 0 36.6667 3 36.6667 6.66667V7.66667C46.6667 10.6667 53.3333 19.6667 53.3333 30V50L60 56.6667ZM46.6667 30C46.6667 20.6667 39.3333 13.3333 30 13.3333C20.6667 13.3333 13.3333 20.6667 13.3333 30V53.3333H46.6667V30Z" fill="#192C4F"/>
</svg>
