<svg width="87" height="95" viewBox="0 0 87 95" fill="none" xmlns="http://www.w3.org/2000/svg">
<path d="M61.3792 91.9188C61.3792 93.7674 62.6117 94.9999 64.4604 94.9999H70.6226C72.4713 94.9999 73.7038 93.7674 73.7038 91.9188V88.8376H61.3792V91.9188ZM67.5415 42.6206C57.3737 42.6206 49.0547 50.9397 49.0547 61.1074C49.0547 67.8859 52.752 74.0482 58.2981 77.1293V82.6754C58.2981 84.524 59.5305 85.7565 61.3792 85.7565H73.7038C75.5524 85.7565 76.7849 84.524 76.7849 82.6754V77.1293C82.3309 74.0482 86.0283 67.8859 86.0283 61.1074C86.0283 50.9397 77.7092 42.6206 67.5415 42.6206ZM70.6226 73.1238V76.5131H64.4604V73.1238C59.2224 71.8914 55.217 66.9616 55.217 61.1074C55.217 54.3289 60.763 48.7829 67.5415 48.7829C74.32 48.7829 79.866 54.3289 79.866 61.1074C79.866 66.9616 75.8606 71.5833 70.6226 73.1238Z" fill="white"/>
<path d="M0 31.5125H9.2434V37.6748H0V31.5125ZM55.7685 8.40401L49.2982 14.8744L53.6117 19.188L60.0821 12.7176L55.7685 8.40401ZM30.8113 0.701172H36.9736V9.94457H30.8113V0.701172ZM12.0164 8.40401L7.70284 12.7176L14.1732 19.188L18.4868 14.8744L12.0164 8.40401ZM27.7302 65.405C27.7302 67.2537 28.9627 68.4861 30.8113 68.4861H36.9736C38.8223 68.4861 40.0547 67.2537 40.0547 65.405V62.3239H27.7302V65.405ZM33.8925 16.1068C23.7247 16.1068 15.4057 24.4259 15.4057 34.5937C15.4057 41.3721 19.103 47.5344 24.6491 50.6156V56.1616C24.6491 58.0103 25.8815 59.2427 27.7302 59.2427H40.0547C41.9034 59.2427 43.1359 58.0103 43.1359 56.1616V50.6156C48.6819 47.5344 52.3793 41.3721 52.3793 34.5937C52.3793 24.4259 44.0602 16.1068 33.8925 16.1068ZM36.9736 46.6101V49.9993H30.8113V46.6101C25.5734 45.3776 21.5679 40.4478 21.5679 34.5937C21.5679 27.8152 27.114 22.2691 33.8925 22.2691C40.671 22.2691 46.217 27.8152 46.217 34.5937C46.217 40.4478 42.2115 45.0695 36.9736 46.6101ZM58.5416 31.5125H67.785V37.6748H58.5416V31.5125Z" fill="white"/>
</svg>
