<svg width="42" height="42" viewBox="0 0 42 42" fill="none" xmlns="http://www.w3.org/2000/svg">
<path d="M20.7999 26.1999C23.7822 26.1999 26.1999 23.7822 26.1999 20.7999C26.1999 17.8176 23.7822 15.3999 20.7999 15.3999C17.8176 15.3999 15.3999 17.8176 15.3999 20.7999C15.3999 23.7822 17.8176 26.1999 20.7999 26.1999Z" stroke="#192C4F" stroke-width="2" stroke-linecap="round" stroke-linejoin="round"/>
<path d="M34.12 26.2C33.8804 26.7429 33.8089 27.3451 33.9148 27.9291C34.0207 28.513 34.299 29.0518 34.714 29.476L34.822 29.584C35.1567 29.9183 35.4222 30.3154 35.6034 30.7524C35.7846 31.1894 35.8778 31.6579 35.8778 32.131C35.8778 32.6041 35.7846 33.0726 35.6034 33.5096C35.4222 33.9466 35.1567 34.3437 34.822 34.678C34.4877 35.0127 34.0906 35.2782 33.6536 35.4594C33.2166 35.6406 32.7481 35.7338 32.275 35.7338C31.8019 35.7338 31.3334 35.6406 30.8964 35.4594C30.4594 35.2782 30.0623 35.0127 29.728 34.678L29.62 34.57C29.1958 34.155 28.657 33.8767 28.0731 33.7708C27.4891 33.6649 26.8869 33.7364 26.344 33.976C25.8116 34.2042 25.3576 34.583 25.0378 35.066C24.7179 35.5489 24.5463 36.1148 24.544 36.694V37C24.544 37.9548 24.1647 38.8705 23.4896 39.5456C22.8145 40.2207 21.8988 40.6 20.944 40.6C19.9892 40.6 19.0735 40.2207 18.3984 39.5456C17.7233 38.8705 17.344 37.9548 17.344 37V36.838C17.3301 36.2422 17.1372 35.6644 16.7905 35.1797C16.4438 34.6949 15.9593 34.3257 15.4 34.12C14.8571 33.8804 14.2549 33.8089 13.6709 33.9148C13.087 34.0207 12.5482 34.299 12.124 34.714L12.016 34.822C11.6817 35.1567 11.2846 35.4222 10.8476 35.6034C10.4106 35.7846 9.9421 35.8778 9.469 35.8778C8.9959 35.8778 8.52745 35.7846 8.09041 35.6034C7.65338 35.4222 7.25634 35.1567 6.922 34.822C6.58728 34.4877 6.32175 34.0906 6.14058 33.6536C5.95942 33.2166 5.86617 32.7481 5.86617 32.275C5.86617 31.8019 5.95942 31.3334 6.14058 30.8964C6.32175 30.4594 6.58728 30.0623 6.922 29.728L7.03 29.62C7.44497 29.1958 7.72333 28.657 7.82921 28.0731C7.93508 27.4891 7.86361 26.8869 7.624 26.344C7.39583 25.8116 7.01696 25.3576 6.53404 25.0378C6.05112 24.7179 5.48522 24.5463 4.906 24.544H4.6C3.64522 24.544 2.72955 24.1647 2.05442 23.4896C1.37928 22.8145 1 21.8988 1 20.944C1 19.9892 1.37928 19.0735 2.05442 18.3984C2.72955 17.7233 3.64522 17.344 4.6 17.344H4.762C5.35779 17.3301 5.93561 17.1372 6.42034 16.7905C6.90507 16.4438 7.27429 15.9593 7.48 15.4C7.71961 14.8571 7.79108 14.2549 7.68521 13.6709C7.57933 13.087 7.30097 12.5482 6.886 12.124L6.778 12.016C6.44328 11.6817 6.17775 11.2846 5.99658 10.8476C5.81542 10.4106 5.72217 9.9421 5.72217 9.469C5.72217 8.9959 5.81542 8.52745 5.99658 8.09041C6.17775 7.65338 6.44328 7.25634 6.778 6.922C7.11234 6.58728 7.50938 6.32175 7.94641 6.14058C8.38345 5.95942 8.8519 5.86617 9.325 5.86617C9.7981 5.86617 10.2666 5.95942 10.7036 6.14058C11.1406 6.32175 11.5377 6.58728 11.872 6.922L11.98 7.03C12.4042 7.44497 12.943 7.72333 13.5269 7.82921C14.1109 7.93508 14.7131 7.86361 15.256 7.624H15.4C15.9324 7.39583 16.3864 7.01696 16.7062 6.53404C17.0261 6.05112 17.1977 5.48522 17.2 4.906V4.6C17.2 3.64522 17.5793 2.72955 18.2544 2.05442C18.9295 1.37928 19.8452 1 20.8 1C21.7548 1 22.6705 1.37928 23.3456 2.05442C24.0207 2.72955 24.4 3.64522 24.4 4.6V4.762C24.4023 5.34122 24.5739 5.90712 24.8938 6.39004C25.2136 6.87296 25.6676 7.25183 26.2 7.48C26.7429 7.71961 27.3451 7.79108 27.9291 7.68521C28.513 7.57933 29.0518 7.30097 29.476 6.886L29.584 6.778C29.9183 6.44328 30.3154 6.17775 30.7524 5.99658C31.1894 5.81542 31.6579 5.72217 32.131 5.72217C32.6041 5.72217 33.0726 5.81542 33.5096 5.99658C33.9466 6.17775 34.3437 6.44328 34.678 6.778C35.0127 7.11234 35.2782 7.50938 35.4594 7.94641C35.6406 8.38345 35.7338 8.8519 35.7338 9.325C35.7338 9.7981 35.6406 10.2666 35.4594 10.7036C35.2782 11.1406 35.0127 11.5377 34.678 11.872L34.57 11.98C34.155 12.4042 33.8767 12.943 33.7708 13.5269C33.6649 14.1109 33.7364 14.7131 33.976 15.256V15.4C34.2042 15.9324 34.583 16.3864 35.066 16.7062C35.5489 17.0261 36.1148 17.1977 36.694 17.2H37C37.9548 17.2 38.8705 17.5793 39.5456 18.2544C40.2207 18.9295 40.6 19.8452 40.6 20.8C40.6 21.7548 40.2207 22.6705 39.5456 23.3456C38.8705 24.0207 37.9548 24.4 37 24.4H36.838C36.2588 24.4023 35.6929 24.5739 35.21 24.8938C34.727 25.2136 34.3482 25.6676 34.12 26.2V26.2Z" stroke="#192C4F" stroke-width="2" stroke-linecap="round" stroke-linejoin="round"/>
</svg>
