<svg width="30" height="64" viewBox="0 0 30 64" fill="none" xmlns="http://www.w3.org/2000/svg">
<g clip-path="url(#clip0_288_189)">
<path d="M15.4069 32.001L29.537 17.9028C30.1535 17.2876 30.1535 16.29 29.537 15.6748L14.2892 0.461526C13.8377 0.0109659 13.1585 -0.123946 12.5684 0.120022C11.9785 0.36399 11.5936 0.938454 11.5936 1.57564L11.5946 28.1978L2.69494 19.318C2.07838 18.7028 1.07849 18.7028 0.461931 19.318C-0.154628 19.9331 -0.154628 20.9308 0.461931 21.5459L10.9409 32.0012L0.461931 42.4563C-0.154628 43.0714 -0.154628 44.0691 0.461931 44.6842C1.07849 45.2994 2.07838 45.2994 2.69494 44.6842L11.5949 35.8044L11.5959 62.4245C11.5959 63.0617 11.9805 63.6362 12.5707 63.8801C12.7659 63.9608 12.9712 64 13.1747 64C13.5857 64 13.9893 63.84 14.2915 63.5386L29.5372 48.3274C30.1538 47.7122 30.1538 46.7146 29.5372 46.0994L15.4072 32.0012L15.4069 32.001ZM14.7518 5.37877L26.1876 16.7887L14.7526 28.1978L14.7518 5.37877ZM14.7536 58.6211L14.7529 35.8044L26.1873 47.2133L14.7536 58.6211Z" fill="white"/>
</g>
<defs>
<clipPath id="clip0_288_189">
<rect width="30" height="64" fill="white"/>
</clipPath>
</defs>
</svg>
