<svg width="35" height="32" viewBox="0 0 35 32" fill="none" xmlns="http://www.w3.org/2000/svg">
<path d="M8.75 4.94444H9.15954L9.45143 4.65719L12.6595 1.5H22.3405L25.5486 4.65719L25.8405 4.94444H26.25H31.5C32.1682 4.94444 32.8058 5.20581 33.2734 5.66604C33.7406 6.12574 34 6.74579 34 7.38889V28.0556C34 28.6987 33.7406 29.3187 33.2734 29.7784C32.8058 30.2386 32.1682 30.5 31.5 30.5H3.5C2.83184 30.5 2.19421 30.2386 1.72655 29.7784L1.02513 30.4911L1.72655 29.7784C1.25944 29.3187 1 28.6987 1 28.0556V7.38889C1 6.74579 1.25944 6.12574 1.72655 5.66604C2.19421 5.20581 2.83184 4.94444 3.5 4.94444H8.75ZM17.5 8.11111C14.9193 8.11111 12.4411 9.11988 10.6114 10.9205C8.78118 12.7217 7.75 15.168 7.75 17.7222C7.75 20.2765 8.78118 22.7228 10.6114 24.5239C12.4411 26.3246 14.9193 27.3333 17.5 27.3333C20.0807 27.3333 22.5589 26.3246 24.3886 24.5239C26.2188 22.7228 27.25 20.2765 27.25 17.7222C27.25 15.168 26.2188 12.7217 24.3886 10.9205C22.5589 9.11988 20.0807 8.11111 17.5 8.11111ZM17.5 13.5556C18.6323 13.5556 19.715 13.9984 20.5109 14.7816C21.3062 15.5643 21.75 16.6224 21.75 17.7222C21.75 18.8221 21.3062 19.8802 20.5109 20.6629C19.715 21.4461 18.6323 21.8889 17.5 21.8889C16.3677 21.8889 15.285 21.4461 14.4891 20.6629C13.6938 19.8802 13.25 18.8221 13.25 17.7222C13.25 16.6224 13.6938 15.5643 14.4891 14.7816C15.285 13.9984 16.3677 13.5556 17.5 13.5556Z" stroke="#192C4F" stroke-width="2"/>
</svg>
