<svg width="72" height="53" viewBox="0 0 72 53" fill="none" xmlns="http://www.w3.org/2000/svg">
<path d="M14.7825 20.9629L17.1393 20.4355L17.7702 18.1043C18.9215 13.8502 21.1598 10.4975 24.5285 7.90836L24.531 7.90637C27.9342 5.28631 31.7129 4 36 4C41.3345 4 45.7133 5.83188 49.3804 9.56179L49.3873 9.5688L49.3942 9.57578C53.0812 13.2893 54.9091 17.7443 54.9091 23.1875V26.7467L58.4442 27.1604C61.2257 27.4859 63.4267 28.6572 65.2345 30.7623L65.2502 30.7806L65.2661 30.7986C67.1046 32.888 68 35.2587 68 38.0938C68 41.2175 66.9686 43.7225 64.8673 45.8493C62.7679 47.9743 60.3157 49 57.2727 49H18C14.0701 49 10.84 47.6757 8.08345 44.9569C5.3403 42.2301 4 39.0064 4 35.0462C4 31.5973 5.00034 28.6068 7.01559 25.9367C9.01821 23.3113 11.5592 21.684 14.7825 20.9629Z" stroke="#192C4F" stroke-width="8"/>
</svg>
