<svg width="74" height="74" viewBox="0 0 74 74" fill="none" xmlns="http://www.w3.org/2000/svg">
<path d="M37 16.8182C42.3526 16.8182 47.4859 18.9445 51.2707 22.7293C55.0555 26.5141 57.1818 31.6474 57.1818 37C57.1818 44.4673 53.1118 50.9927 47.0909 54.4909V60.5455C47.0909 61.4375 46.7365 62.2931 46.1057 62.9239C45.4749 63.5547 44.6194 63.9091 43.7273 63.9091H30.2727C29.3806 63.9091 28.5251 63.5547 27.8943 62.9239C27.2635 62.2931 26.9091 61.4375 26.9091 60.5455V54.4909C20.8882 50.9927 16.8182 44.4673 16.8182 37C16.8182 31.6474 18.9445 26.5141 22.7293 22.7293C26.5141 18.9445 31.6474 16.8182 37 16.8182ZM43.7273 67.2727V70.6364C43.7273 71.5285 43.3729 72.384 42.7421 73.0148C42.1113 73.6456 41.2557 74 40.3636 74H33.6364C32.7443 74 31.8887 73.6456 31.2579 73.0148C30.6271 72.384 30.2727 71.5285 30.2727 70.6364V67.2727H43.7273ZM63.9091 33.6364H74V40.3636H63.9091V33.6364ZM0 33.6364H10.0909V40.3636H0V33.6364ZM40.3636 0V10.0909H33.6364V0H40.3636ZM13.1855 8.40909L20.35 15.6073L15.5736 20.35L8.40909 13.2191L13.1855 8.40909ZM53.65 15.5736L60.7809 8.40909L65.5909 13.2191L58.4264 20.35L53.65 15.5736Z" fill="#192C4F"/>
</svg>
