<svg width="74" height="74" viewBox="0 0 74 74" fill="none" xmlns="http://www.w3.org/2000/svg">
<path d="M0 33.6364H10.0909V40.3636H0V33.6364ZM60.8818 8.40909L53.8182 15.4727L58.5273 20.1818L65.5909 13.1182L60.8818 8.40909ZM33.6364 0H40.3636V10.0909H33.6364V0ZM13.1182 8.40909L8.40909 13.1182L15.4727 20.1818L20.1818 15.4727L13.1182 8.40909ZM30.2727 70.6364C30.2727 72.6545 31.6182 74 33.6364 74H40.3636C42.3818 74 43.7273 72.6545 43.7273 70.6364V67.2727H30.2727V70.6364ZM37 16.8182C25.9 16.8182 16.8182 25.9 16.8182 37C16.8182 44.4 20.8545 51.1273 26.9091 54.4909V60.5455C26.9091 62.5636 28.2545 63.9091 30.2727 63.9091H43.7273C45.7455 63.9091 47.0909 62.5636 47.0909 60.5455V54.4909C53.1455 51.1273 57.1818 44.4 57.1818 37C57.1818 25.9 48.1 16.8182 37 16.8182ZM40.3636 50.1182V53.8182H33.6364V50.1182C27.9182 48.7727 23.5455 43.3909 23.5455 37C23.5455 29.6 29.6 23.5455 37 23.5455C44.4 23.5455 50.4545 29.6 50.4545 37C50.4545 43.3909 46.0818 48.4364 40.3636 50.1182ZM63.9091 33.6364H74V40.3636H63.9091V33.6364Z" fill="white"/>
</svg>
