<svg width="106" height="99" viewBox="0 0 106 99" fill="none" xmlns="http://www.w3.org/2000/svg">
<path d="M41.5134 88.3298C31.335 95.9677 16.8954 93.9041 9.26119 83.7196C3.11799 75.524 3.11799 64.2549 9.26119 56.0593L5.97818 52.7749C-3.50355 64.7482 -1.48895 82.1455 10.4778 91.6324C20.5335 99.6044 34.7491 99.6063 44.8072 91.6375L41.513 88.3298H41.5134Z" fill="white"/>
<path d="M68.8471 47.3928C67.9376 46.4655 66.6897 45.9494 65.3914 45.9639L45.3262 46.6093L56.7068 31.9839C58.2673 29.9726 57.9028 27.0769 55.8929 25.5155C55.7552 25.4086 55.6115 25.3097 55.4626 25.2187L30.7204 10.0403C28.9429 8.95253 26.6572 9.19333 25.1456 10.6279L12.4752 22.6483C10.6304 24.402 10.5558 27.3201 12.3081 29.1657C14.0604 31.0114 16.9771 31.0865 18.8218 29.3328L28.9004 19.7442L37.482 25.011L22.8305 42.8862C17.7434 43.7365 12.9974 46.0007 9.13477 49.4209L12.4061 52.6941C22.2056 44.5751 36.7278 45.9415 44.8427 55.7466C51.901 64.2749 51.901 76.6201 44.8427 85.1489L48.114 88.4333C56.1412 79.3077 57.2719 66.0077 50.9014 55.6561L60.4966 55.3448L58.481 80.8383C58.2757 83.3761 60.1657 85.5997 62.702 85.8051C62.7044 85.8051 62.7062 85.8051 62.7086 85.8055H63.0889C65.4964 85.8135 67.5036 83.9655 67.6963 81.5645L70.115 50.9423C70.2177 49.6323 69.7566 48.3411 68.848 47.3923L68.8471 47.3928Z" fill="white"/>
<path d="M66.6218 19.0453C70.128 15.5391 70.128 9.85444 66.6218 6.34823C63.1156 2.84203 57.4309 2.84203 53.9247 6.34823C50.4185 9.85444 50.4185 15.5391 53.9247 19.0453C57.4309 22.5515 63.1156 22.5515 66.6218 19.0453Z" fill="white"/>
<path d="M94.8942 96.1079H105.838V98.5919H90.9702V96.1799C98.4102 90.5639 102.13 85.8839 102.13 82.1399C102.13 80.6519 101.698 79.5119 100.834 78.7199C99.9702 77.9039 98.8062 77.4959 97.3422 77.4959C95.4462 77.4959 93.5742 78.2039 91.7262 79.6199V76.7759C93.4302 75.4559 95.3862 74.7959 97.5942 74.7959C99.7062 74.7959 101.482 75.4079 102.922 76.6319C104.362 77.8559 105.082 79.5959 105.082 81.8519C105.082 86.0999 101.686 90.8519 94.8942 96.1079Z" fill="white"/>
</svg>
