<svg width="70" height="71" viewBox="0 0 70 71" fill="none" xmlns="http://www.w3.org/2000/svg">
<path d="M50.26 42.6C50.54 40.257 50.75 37.914 50.75 35.5C50.75 33.086 50.54 30.743 50.26 28.4H62.09C62.65 30.672 63 33.0505 63 35.5C63 37.9495 62.65 40.328 62.09 42.6M44.065 62.338C46.165 58.3975 47.775 54.1375 48.895 49.7H59.22C55.86 55.5575 50.505 60.1015 44.065 62.338ZM43.19 42.6H26.81C26.46 40.257 26.25 37.914 26.25 35.5C26.25 33.086 26.46 30.7075 26.81 28.4H43.19C43.505 30.7075 43.75 33.086 43.75 35.5C43.75 37.914 43.505 40.257 43.19 42.6ZM35 63.758C32.095 59.498 29.75 54.7765 28.315 49.7H41.685C40.25 54.7765 37.905 59.498 35 63.758ZM21 21.3H10.78C14.105 15.407 19.495 10.863 25.9 8.662C23.8 12.6025 22.225 16.8625 21 21.3ZM10.78 49.7H21C22.225 54.1375 23.8 58.3975 25.9 62.338C19.495 60.1015 14.105 55.5575 10.78 49.7ZM7.91 42.6C7.35 40.328 7 37.9495 7 35.5C7 33.0505 7.35 30.672 7.91 28.4H19.74C19.46 30.743 19.25 33.086 19.25 35.5C19.25 37.914 19.46 40.257 19.74 42.6M35 7.2065C37.905 11.4665 40.25 16.2235 41.685 21.3H28.315C29.75 16.2235 32.095 11.4665 35 7.2065ZM59.22 21.3H48.895C47.775 16.8625 46.165 12.6025 44.065 8.662C50.505 10.8985 55.86 15.407 59.22 21.3ZM35 0C15.645 0 0 15.975 0 35.5C0 44.9152 3.68749 53.9447 10.2513 60.6023C13.5013 63.8988 17.3597 66.5137 21.6061 68.2977C25.8525 70.0818 30.4037 71 35 71C44.2826 71 53.185 67.2598 59.7487 60.6023C66.3125 53.9447 70 44.9152 70 35.5C70 30.8381 69.0947 26.2218 67.3358 21.9147C65.5769 17.6077 62.9988 13.6942 59.7487 10.3977C56.4987 7.10123 52.6403 4.48632 48.3939 2.70228C44.1475 0.918235 39.5963 0 35 0Z" fill="#192C4F"/>
</svg>
