<svg width="71" height="98" viewBox="0 0 71 98" fill="none" xmlns="http://www.w3.org/2000/svg">
<g clip-path="url(#clip0_358_143)">
<path d="M54.8255 86.2454L35.2102 97.3311C35.2102 97.3311 35.1575 97.3442 35.1311 97.3311L15.9904 86.2454C15.9904 86.2454 15.9377 86.1929 15.9508 86.1536L22.832 59.9284C22.832 59.9284 22.8716 59.8628 22.9111 59.8628H46.8502C46.8502 59.8628 46.9161 59.889 46.9293 59.9153L54.8651 86.1404C54.8651 86.1404 54.8651 86.2192 54.8255 86.2323V86.2454Z" fill="#FEFFFF" stroke="#0F1D31"/>
<path d="M35.131 66.501L23.0824 59.9807C22.9901 59.9283 22.9901 59.7971 23.0824 59.7446L35.131 53.7754C35.131 53.7754 35.1838 53.7754 35.2101 53.7754L46.6524 59.7184C46.771 59.784 46.771 59.9414 46.6524 60.007L35.2101 66.4878C35.2101 66.4878 35.1574 66.501 35.131 66.4878V66.501Z" fill="#FEFFFF" stroke="#0F1D31"/>
<path d="M33.7731 35.146C33.2853 34.3588 33.549 33.3224 34.3399 32.837L60.4145 17.094C61.5219 16.425 62.3655 15.5198 62.9456 14.4702C63.5256 13.4207 63.8288 12.24 63.8288 11.0592C63.8288 9.81292 63.4992 8.55349 62.8005 7.41212C62.1282 6.31011 61.2187 5.47049 60.1641 4.89325C59.1095 4.316 57.9231 4.01426 56.7367 4.01426C55.4844 4.01426 54.2188 4.34224 53.072 5.03756L35.9877 15.3623C35.1968 15.8477 34.1554 15.5853 33.6676 14.7982C33.1799 14.011 33.4435 12.9746 34.2344 12.4892L51.3056 2.16446C52.9929 1.14117 54.878 0.655762 56.7235 0.655762C58.4899 0.655762 60.23 1.10181 61.7855 1.95456C63.341 2.8073 64.6988 4.06674 65.6743 5.66727C66.7025 7.34653 67.1903 9.22256 67.1903 11.0592C67.1903 12.8172 66.7421 14.5489 65.8852 16.097C65.0284 17.6451 63.7629 18.9963 62.1546 19.9671L36.08 35.7232C35.8031 35.8938 35.5 35.9725 35.2099 35.9725C34.6431 35.9725 34.0894 35.6839 33.7731 35.1591V35.146Z" fill="#FEFFFF" stroke="#0F1D31"/>
<path d="M34.2873 35.5658L6.64401 20.4787C4.91712 19.5342 3.54616 18.1698 2.6234 16.5824C1.70064 14.9949 1.21289 13.1845 1.21289 11.3478C1.21289 9.65545 1.63472 7.93684 2.50476 6.34942C3.45389 4.63082 4.82485 3.26642 6.41991 2.34808C8.01497 1.42974 9.83413 0.944336 11.6797 0.944336C13.3802 0.944336 15.1071 1.36415 16.7021 2.23001L35.6847 12.5941C36.502 13.0402 36.8052 14.0635 36.357 14.8769C35.9088 15.6903 34.8806 15.992 34.0632 15.5459L15.0807 5.1687C13.9997 4.57834 12.8397 4.30284 11.6797 4.30284C10.4273 4.30284 9.1882 4.63082 8.10725 5.26053C7.0263 5.89025 6.10353 6.79548 5.4576 7.96308C4.86439 9.03885 4.58757 10.1933 4.58757 11.3478C4.58757 12.5941 4.91712 13.8273 5.54988 14.9031C6.18263 15.9789 7.09221 16.8972 8.26543 17.5401L35.9088 32.6271C36.7261 33.0731 37.0293 34.0964 36.5811 34.9098C36.2779 35.4608 35.6979 35.7757 35.1046 35.7757C34.8278 35.7757 34.551 35.7101 34.3005 35.5658H34.2873Z" fill="#FEFFFF" stroke="#0F1D31"/>
<path d="M38.8482 9.70822H38.835C38.8482 9.60327 38.8746 9.51143 38.8746 9.40648C38.8746 7.95025 37.095 6.76953 34.8935 6.76953C32.6921 6.76953 30.9125 7.95025 30.9125 9.40648C30.9125 9.51143 30.9388 9.60327 30.952 9.70822H30.9125L29.5942 58.8394C29.5942 60.781 31.9671 62.3553 34.8935 62.3553C37.82 62.3553 40.1928 60.781 40.1928 58.8394L38.8482 9.70822Z" fill="#FEFFFF"/>
<path d="M38.8482 9.70822H38.835C38.8482 9.60327 38.8746 9.51143 38.8746 9.40648C38.8746 7.95025 37.095 6.76953 34.8935 6.76953C32.6921 6.76953 30.9125 7.95025 30.9125 9.40648C30.9125 9.51143 30.9388 9.60327 30.952 9.70822H30.9125L29.5942 58.8394C29.5942 60.781 31.9671 62.3553 34.8935 62.3553C37.82 62.3553 40.1928 60.781 40.1928 58.8394L38.8482 9.70822Z" stroke="#0F1D31"/>
<path d="M38.8747 9.40648C38.8747 10.8627 37.0951 12.0434 34.8937 12.0434C32.6922 12.0434 30.9126 10.8627 30.9126 9.40648C30.9126 7.95025 32.6922 6.76953 34.8937 6.76953C37.0951 6.76953 38.8747 7.95025 38.8747 9.40648Z" fill="#FEFFFF" stroke="#0F1D31"/>
<path d="M11.1259 49.0395C9.35951 49.0395 7.61945 48.5934 6.06393 47.7407C4.50842 46.8879 3.15064 45.6416 2.17515 44.028C1.14693 42.3487 0.65918 40.4727 0.65918 38.636C0.65918 36.878 1.10738 35.1463 1.96423 33.5983C2.82108 32.0502 4.08658 30.6989 5.69483 29.7281L31.1894 14.3525C31.9804 13.8671 33.0218 14.1294 33.5095 14.9166C33.9973 15.7037 33.7336 16.7402 32.9427 17.2256L7.44808 32.6012C6.34076 33.2703 5.49709 34.1755 4.91707 35.225C4.33705 36.2614 4.03385 37.4553 4.03385 38.636C4.03385 39.8823 4.36341 41.1418 5.06208 42.2831C5.73437 43.3851 6.64395 44.2248 7.69854 44.802C8.75313 45.3792 9.93953 45.681 11.1259 45.681C12.3783 45.681 13.6438 45.353 14.7906 44.6577L31.4795 34.5691C32.2704 34.0837 33.3118 34.346 33.7995 35.1332C34.2873 35.9203 34.0236 36.9568 33.2327 37.4422L16.5439 47.5308C14.8565 48.5541 12.9715 49.0395 11.1259 49.0395Z" fill="#FEFFFF" stroke="#0F1D31"/>
<path d="M54.8515 46.6912L37.2531 37.088C36.4358 36.642 36.1326 35.6187 36.5808 34.8053C37.029 33.9919 38.0572 33.6902 38.8745 34.1362L56.4729 43.7394C57.5539 44.3298 58.7271 44.6053 59.8739 44.6053C61.1263 44.6053 62.3654 44.2773 63.4464 43.6476C64.5273 43.0179 65.4501 42.1127 66.096 40.9451C66.6892 39.8693 66.966 38.7017 66.966 37.5603C66.966 36.314 66.6365 35.0808 66.0037 34.005C65.371 32.9293 64.4614 32.0109 63.2882 31.3681L36.739 16.8583C35.9217 16.4123 35.6185 15.389 36.0667 14.5756C36.5149 13.7622 37.5431 13.4604 38.3604 13.9065L64.9096 28.4294C66.6365 29.374 68.0074 30.7384 68.9302 32.3258C69.853 33.9132 70.3407 35.7236 70.3407 37.5603C70.3407 39.2527 69.9189 40.9713 69.0488 42.5587C68.0997 44.2773 66.7288 45.6417 65.1337 46.56C63.5386 47.4784 61.7195 47.9638 59.8739 47.9638C58.1734 47.9638 56.4465 47.544 54.8515 46.6781V46.6912Z" fill="#FEFFFF" stroke="#0F1D31"/>
<path d="M35.1045 66.6846V97.2653" stroke="#0F1D31"/>
</g>
<defs>
<clipPath id="clip0_358_143">
<rect width="71" height="98" fill="white"/>
</clipPath>
</defs>
</svg>
