<svg width="31" height="34" viewBox="0 0 31 34" fill="none" xmlns="http://www.w3.org/2000/svg">
<path d="M24.5 10.9C24.5 8.40697 23.5096 6.01604 21.7468 4.2532C19.984 2.49035 17.593 1.5 15.1 1.5C12.607 1.5 10.216 2.49035 8.4532 4.2532C6.69035 6.01604 5.7 8.40697 5.7 10.9C5.7 21.8667 1 25 1 25H29.2C29.2 25 24.5 21.8667 24.5 10.9Z" stroke="#192C4F" stroke-width="2" stroke-linecap="round" stroke-linejoin="round"/>
<path d="M17.8103 31.2666C17.5349 31.7414 17.1395 32.1356 16.6639 32.4095C16.1882 32.6835 15.6489 32.8277 15.1 32.8277C14.5511 32.8277 14.0118 32.6835 13.5361 32.4095C13.0604 32.1356 12.6651 31.7414 12.3896 31.2666" stroke="#192C4F" stroke-width="2" stroke-linecap="round" stroke-linejoin="round"/>
</svg>
