<svg width="105" height="99" viewBox="0 0 105 99" fill="none" xmlns="http://www.w3.org/2000/svg">
<path d="M41.5134 89.3054C31.335 96.9433 16.8954 94.8797 9.26119 84.6952C3.11799 76.4996 3.11799 65.2305 9.26119 57.0349L5.97818 53.7505C-3.50355 65.7238 -1.48895 83.1211 10.4778 92.608C20.5335 100.58 34.7491 100.582 44.8072 92.6131L41.513 89.3054H41.5134Z" fill="white"/>
<path d="M68.8471 48.3684C67.9376 47.4411 66.6897 46.925 65.3914 46.9395L45.3262 47.5849L56.7068 32.9595C58.2673 30.9482 57.9028 28.0525 55.8929 26.491C55.7552 26.3842 55.6115 26.2853 55.4626 26.1943L30.7204 11.0159C28.9429 9.92812 26.6572 10.1689 25.1456 11.6034L12.4752 23.6238C10.6304 25.3776 10.5558 28.2957 12.3081 30.1413C14.0604 31.987 16.9771 32.0621 18.8218 30.3084L28.9004 20.7198L37.482 25.9866L22.8305 43.8618C17.7434 44.7121 12.9974 46.9763 9.13477 50.3965L12.4061 53.6697C22.2056 45.5507 36.7278 46.9171 44.8427 56.7222C51.901 65.2505 51.901 77.5957 44.8427 86.1245L48.114 89.4089C56.1412 80.2833 57.2719 66.9833 50.9014 56.6317L60.4966 56.3204L58.481 81.8139C58.2757 84.3517 60.1657 86.5753 62.702 86.7807C62.7044 86.7807 62.7062 86.7807 62.7086 86.7811H63.0889C65.4964 86.7891 67.5036 84.9411 67.6963 82.5401L70.115 51.9179C70.2177 50.6079 69.7566 49.3167 68.848 48.3679L68.8471 48.3684Z" fill="white"/>
<path d="M66.6218 20.0214C70.128 16.5152 70.128 10.8305 66.6218 7.3243C63.1156 3.8181 57.4309 3.8181 53.9247 7.32431C50.4185 10.8305 50.4185 16.5152 53.9247 20.0214C57.4309 23.5276 63.1156 23.5276 66.6218 20.0214Z" fill="white"/>
<path d="M91.72 79.0918V76.3198C93.112 75.4318 94.72 74.9878 96.544 74.9878C98.872 74.9878 100.672 75.5878 101.944 76.7878C103.24 77.9638 103.888 79.4278 103.888 81.1798C103.888 82.4518 103.564 83.5918 102.916 84.5998C102.292 85.6078 101.356 86.3638 100.108 86.8678C101.476 87.1798 102.556 87.8158 103.348 88.7758C104.164 89.7118 104.572 90.8878 104.572 92.3038C104.572 94.2238 103.9 95.8198 102.556 97.0918C101.212 98.3638 99.316 98.9998 96.868 98.9998C94.612 98.9998 92.656 98.6038 91 97.8118V94.9678C92.776 95.9038 94.708 96.3718 96.796 96.3718C98.332 96.3718 99.52 95.9758 100.36 95.1838C101.224 94.3918 101.656 93.3598 101.656 92.0878C101.656 90.8158 101.176 89.8438 100.216 89.1718C99.28 88.4758 97.924 88.1278 96.148 88.1278H94.636V85.6438H96.148C97.492 85.6438 98.62 85.2718 99.532 84.5278C100.468 83.7598 100.936 82.7398 100.936 81.4678C100.936 80.1958 100.54 79.2358 99.748 78.5878C98.956 77.9398 97.864 77.6158 96.472 77.6158C94.816 77.6158 93.232 78.1078 91.72 79.0918Z" fill="white"/>
</svg>
