<svg width="27" height="35" viewBox="0 0 27 35" fill="none" xmlns="http://www.w3.org/2000/svg">
<path d="M13.225 0.5C11.7466 0.5 10.3014 0.938398 9.07211 1.75976C7.84285 2.58112 6.88477 3.74854 6.31901 5.11441C5.75324 6.48029 5.60521 7.98328 5.89363 9.43328C6.18206 10.8833 6.89398 12.2152 7.93938 13.2606C8.98477 14.306 10.3167 15.018 11.7667 15.3064C13.2167 15.5948 14.7197 15.4467 16.0856 14.881C17.4514 14.3152 18.6189 13.3572 19.4402 12.1279C20.2616 10.8987 20.7 9.45338 20.7 7.97497C20.6963 5.99361 19.9076 4.09447 18.5066 2.69344C17.1055 1.2924 15.2064 0.503673 13.225 0.5ZM13.225 2.6363C14.2806 2.6363 15.3126 2.94933 16.1903 3.53582C17.0681 4.12231 17.7522 4.9559 18.1562 5.9312C18.5602 6.90649 18.6659 7.97969 18.4599 9.01506C18.254 10.0504 17.7456 11.0015 16.9992 11.7479C16.2527 12.4944 15.3017 13.0027 14.2663 13.2086C13.2309 13.4146 12.1577 13.3089 11.1824 12.9049C10.2071 12.5009 9.37353 11.8168 8.78704 10.9391C8.20055 10.0613 7.88752 9.02939 7.88752 7.97374C7.88586 7.27229 8.02277 6.57743 8.2904 5.92904C8.55803 5.28065 8.95109 4.69145 9.44704 4.19539C9.94298 3.69932 10.532 3.30611 11.1804 3.03833C11.8287 2.77055 12.5235 2.63349 13.225 2.63499V2.6363Z" fill="#192C4F"/>
<path d="M13.225 17.7551C11.4887 17.754 9.76913 18.1154 8.16465 18.8187C6.56017 19.5221 5.10219 20.5536 3.87403 21.8543C2.64586 23.155 1.67158 24.6995 1.00686 26.3994C0.342141 28.0993 6.08039e-06 29.9214 6.43318e-06 31.7615V33.9184C-0.000468581 34.06 0.0253664 34.2002 0.0760386 34.3312C0.126711 34.4621 0.201233 34.5812 0.295338 34.6817C0.389443 34.7821 0.501288 34.8619 0.624498 34.9165C0.747709 34.9712 0.879861 34.9995 1.01342 35H25.4366C25.5701 34.9995 25.7023 34.9712 25.8255 34.9165C25.9487 34.8619 26.0606 34.7821 26.1547 34.6817C26.2488 34.5812 26.3233 34.4621 26.374 34.3312C26.4246 34.2002 26.4505 34.06 26.45 33.9184V31.7615C26.4506 29.9209 26.109 28.0984 25.4445 26.3979C24.7801 24.6973 23.8059 23.1523 22.5777 21.851C21.3495 20.5498 19.8912 19.5178 18.2865 18.8141C16.6817 18.1105 14.9617 17.7488 13.225 17.75V17.7551ZM13.225 19.9108C14.6953 19.9045 16.1523 20.2068 17.5119 20.8001C18.8714 21.3934 20.1068 22.2659 21.1466 23.3676C22.1865 24.4692 23.0103 25.7781 23.5706 27.2187C24.1309 28.6594 24.4165 30.2033 24.4111 31.7615V32.8431H2.03526V31.7615C2.02985 30.203 2.31564 28.6587 2.87615 27.2179C3.43666 25.777 4.26079 24.4679 5.30103 23.3663C6.34126 22.2646 7.57701 21.392 8.93702 20.799C10.297 20.2059 11.7544 19.904 13.225 19.9108Z" fill="#192C4F"/>
</svg>
