<svg width="51" height="51" viewBox="0 0 51 51" fill="none" xmlns="http://www.w3.org/2000/svg">
<g clip-path="url(#clip0_288_191)">
<path d="M21.5394 -0.000252345C21.0215 -0.000252345 20.6768 0.421602 20.6046 0.934527L19.7429 7.04646C18.6317 7.39328 17.5539 7.83968 16.5229 8.38021L11.5918 4.66775C11.3849 4.51203 11.1461 4.42049 10.913 4.41364C10.6799 4.4068 10.4532 4.48466 10.2701 4.66775L8.52935 6.40849L6.40923 8.52861L4.66849 10.2693C4.30232 10.6355 4.35705 11.1775 4.66849 11.5911L8.38095 16.5221C7.84042 17.5532 7.39402 18.6307 7.0472 19.742L0.935268 20.6036C0.422578 20.6758 0.000488281 21.0205 0.000488281 21.5384V29.4602C0.000488281 29.9781 0.422343 30.3225 0.935268 30.395L7.0472 31.2568C7.39379 32.3681 7.84018 33.4456 8.38095 34.4767L4.66849 39.4077C4.35705 39.8213 4.30232 40.3635 4.66849 40.7297L6.40923 42.4704L8.52935 44.5905L10.2701 46.3313C10.6363 46.6974 11.1782 46.6427 11.5918 46.3313L16.5229 42.6188C17.5539 43.1593 18.6314 43.6057 19.7427 43.9526L20.6043 50.0645C20.6765 50.5772 21.0212 50.9993 21.5391 50.9993H29.4609C29.9788 50.9993 30.3233 50.5774 30.3957 50.0645L31.2576 43.9526C32.3688 43.606 33.4464 43.1596 34.4774 42.6188L39.4085 46.3313C39.8221 46.6427 40.3642 46.6974 40.7304 46.3313L42.4711 44.5905L44.5913 42.4704L46.332 40.7297C46.6982 40.3635 46.6434 39.8213 46.332 39.4077L42.6196 34.4767C43.1601 33.4456 43.6065 32.3681 43.9533 31.2568L50.0652 30.395C50.5779 30.3228 51 29.9781 51 29.4602V21.5384C51 21.0205 50.5782 20.6758 50.0652 20.6036L43.9533 19.742C43.6065 18.6307 43.1601 17.5529 42.6196 16.5219L46.3322 11.5908C46.6437 11.1772 46.6984 10.6353 46.3322 10.2691L44.5915 8.52837L42.4714 6.40825L40.7306 4.66751C40.5476 4.48443 40.3204 4.40657 40.0875 4.41341C39.8544 4.42025 39.6156 4.51179 39.4087 4.66751L34.4776 8.37997C33.4468 7.83944 32.3691 7.39305 31.2578 7.04622L30.3959 0.934291C30.3237 0.421602 29.979 -0.000488281 29.4612 -0.000488281H21.5394V-0.000252345ZM25.4738 12.9555C25.4826 12.9555 25.4915 12.9555 25.5003 12.9555C32.4283 12.9555 38.0445 18.5717 38.0445 25.4997C38.0445 32.4278 32.4283 38.044 25.5003 38.044C18.5722 38.044 12.956 32.4278 12.956 25.4997C12.956 18.5821 18.5562 12.9701 25.4738 12.9555Z" fill="white"/>
</g>
<defs>
<clipPath id="clip0_288_191">
<rect width="51" height="51" fill="white"/>
</clipPath>
</defs>
</svg>
