<svg width="70" height="70" viewBox="0 0 70 70" fill="none" xmlns="http://www.w3.org/2000/svg">
<path d="M66.1111 62.4722H69.75V69.75H0.25V62.4722H3.88889H4.13889V62.2222V7.77778C4.13889 3.63807 7.52696 0.25 11.6667 0.25H58.3333C62.473 0.25 65.8611 3.63807 65.8611 7.77778V62.2222V62.4722H66.1111ZM31.3611 7.77778V7.52778H31.1111H11.6667H11.4167V7.77778V62.2222V62.4722H11.6667H31.1111H31.3611V62.2222V7.77778ZM58.5833 7.77778V7.52778H58.3333H38.8889H38.6389V7.77778V62.2222V62.4722H38.8889H58.3333H58.5833V62.2222V7.77778ZM26.9722 38.6389H19.6944V31.3611H26.9722V38.6389ZM43.0278 38.6389V31.3611H50.3056V38.6389H43.0278Z" fill="white" stroke="black" stroke-width="0.5"/>
</svg>
