<svg width="90" height="80" viewBox="0 0 90 80" fill="none" xmlns="http://www.w3.org/2000/svg">
<path d="M22.5 11.3889H23.5264L24.2568 10.6676L32.5264 2.5H57.4736L65.7432 10.6676L66.4735 11.3889H67.5H81C82.7339 11.3889 84.3905 12.0695 85.6072 13.2711C86.8228 14.4717 87.5 16.0934 87.5 17.7778V71.1111C87.5 72.7955 86.8228 74.4172 85.6072 75.6178C84.3905 76.8194 82.7339 77.5 81 77.5H9C7.26614 77.5 5.60946 76.8194 4.39279 75.6178C3.17718 74.4172 2.5 72.7955 2.5 71.1111V17.7778C2.5 16.0934 3.17718 14.4717 4.39279 13.2711C5.60946 12.0695 7.26614 11.3889 9 11.3889H22.5ZM45 19.7222C38.3795 19.7222 32.0241 22.3194 27.3333 26.9522C22.6416 31.5861 20 37.8776 20 44.4444C20 51.0113 22.6416 57.3028 27.3333 61.9366C32.0241 66.5695 38.3795 69.1667 45 69.1667C51.6205 69.1667 57.9759 66.5695 62.6667 61.9366C67.3584 57.3028 70 51.0113 70 44.4444C70 37.8776 67.3584 31.5861 62.6667 26.9522C57.9759 22.3194 51.6205 19.7222 45 19.7222ZM45 33.6111C47.9273 33.6111 50.7286 34.7599 52.7892 36.7951C54.8487 38.8292 56 41.5814 56 44.4444C56 47.3075 54.8487 50.0597 52.7892 52.0938C50.7286 54.129 47.9273 55.2778 45 55.2778C42.0727 55.2778 39.2714 54.129 37.2108 52.0938C35.1513 50.0597 34 47.3075 34 44.4444C34 41.5814 35.1513 38.8292 37.2108 36.7951C39.2714 34.7599 42.0727 33.6111 45 33.6111Z" stroke="white" stroke-width="5"/>
</svg>
