<svg width="70" height="70" viewBox="0 0 70 70" fill="none" xmlns="http://www.w3.org/2000/svg">
<path d="M31.5 24.5H38.5V17.5H31.5M35 63C19.565 63 7 50.435 7 35C7 19.565 19.565 7 35 7C50.435 7 63 19.565 63 35C63 50.435 50.435 63 35 63ZM35 0C30.4037 0 25.8525 0.905302 21.6061 2.66422C17.3597 4.42313 13.5013 7.00121 10.2513 10.2513C3.68749 16.815 0 25.7174 0 35C0 44.2826 3.68749 53.185 10.2513 59.7487C13.5013 62.9988 17.3597 65.5769 21.6061 67.3358C25.8525 69.0947 30.4037 70 35 70C44.2826 70 53.185 66.3125 59.7487 59.7487C66.3125 53.185 70 44.2826 70 35C70 30.4037 69.0947 25.8525 67.3358 21.6061C65.5769 17.3597 62.9988 13.5013 59.7487 10.2513C56.4987 7.00121 52.6403 4.42313 48.3939 2.66422C44.1475 0.905302 39.5963 0 35 0ZM31.5 52.5H38.5V31.5H31.5V52.5Z" fill="#192C4F"/>
</svg>
