<svg width="73" height="66" viewBox="0 0 73 66" fill="none" xmlns="http://www.w3.org/2000/svg">
<path d="M61.028 43.0308C62.3055 39.9416 62.999 36.6344 62.999 33C62.999 30.3833 62.5975 27.8755 61.904 25.5496C59.5315 26.0947 57.0495 26.3855 54.458 26.3855C43.289 26.3855 33.3975 20.8976 27.375 12.4295C24.1265 20.2797 17.9215 26.6762 10.1105 30.1652C9.9645 31.0738 9.9645 32.0551 9.9645 33C9.9645 40.0075 12.7602 46.728 17.7366 51.683C22.7129 56.6381 29.4623 59.4218 36.5 59.4218C40.3325 59.4218 44.019 58.5859 47.3405 57.0958C49.421 61.0573 50.37 63.0198 50.297 63.0198C44.311 65.0187 39.6755 66 36.5 66C27.667 66 19.2355 62.5474 13.0305 56.3326C9.2345 52.5529 6.424 47.9372 4.8545 42.9218H0V26.3855H3.9785C7.0445 11.3392 20.44 0 36.5 0C45.26 0 53.6915 3.45264 59.933 9.6674C64.5685 14.2467 67.671 20.098 68.9485 26.3855H73V42.7037V42.7764V42.9218H72.781L59.787 54.8062L40.442 52.6255V46.5562H58.0715L61.028 43.0308ZM26.5355 32.1641C27.6305 32.1641 28.689 32.6002 29.4555 33.3998C30.222 34.163 30.66 35.217 30.66 36.3073C30.66 37.3976 30.222 38.4515 29.4555 39.2148C28.689 39.978 27.6305 40.4141 26.5355 40.4141C24.236 40.4141 22.3745 38.5969 22.3745 36.3073C22.3745 34.0176 24.236 32.1641 26.5355 32.1641ZM46.428 32.1641C48.7275 32.1641 50.5525 34.0176 50.5525 36.3073C50.5525 38.5969 48.7275 40.4141 46.428 40.4141C44.1285 40.4141 42.267 38.5969 42.267 36.3073C42.267 35.2084 42.7054 34.1546 43.4857 33.3776C44.2661 32.6006 45.3244 32.1641 46.428 32.1641Z" fill="#192C4F"/>
</svg>
