<svg width="584" height="215" viewBox="0 0 584 215" fill="none" xmlns="http://www.w3.org/2000/svg">
<g filter="url(#filter0_b_402_76)">
<rect width="584" height="215" rx="15" fill="#DADADA" fill-opacity="0.2"/>
<rect x="0.75" y="0.75" width="582.5" height="213.5" rx="14.25" stroke="#77BBED" stroke-width="1.5"/>
</g>
<path d="M352.494 150.52V151.94H348.854V164H347.234V151.94H343.594V150.52H352.494ZM360.803 158.28V157.88C360.803 157.04 360.576 156.373 360.123 155.88C359.669 155.373 359.043 155.12 358.243 155.12C357.483 155.12 356.836 155.393 356.303 155.94C355.769 156.487 355.456 157.267 355.363 158.28H360.803ZM361.743 162V163.48C360.956 163.893 359.996 164.1 358.863 164.1C357.329 164.1 356.089 163.633 355.143 162.7C354.209 161.753 353.743 160.507 353.743 158.96C353.743 157.347 354.163 156.073 355.003 155.14C355.843 154.207 356.923 153.74 358.243 153.74C359.509 153.74 360.516 154.147 361.263 154.96C362.009 155.773 362.383 156.927 362.383 158.42C362.383 158.847 362.349 159.24 362.283 159.6H355.363C355.483 160.6 355.863 161.367 356.503 161.9C357.143 162.433 357.983 162.7 359.023 162.7C360.156 162.7 361.063 162.467 361.743 162ZM366.352 153.86V155.5C366.912 154.313 367.865 153.72 369.212 153.72C370.772 153.72 371.759 154.38 372.172 155.7C372.465 155.06 372.872 154.573 373.392 154.24C373.925 153.893 374.519 153.72 375.172 153.72C376.225 153.72 377.019 154.02 377.552 154.62C378.085 155.22 378.352 156.027 378.352 157.04V164H376.772V157.44C376.772 155.907 376.125 155.14 374.832 155.14C374.192 155.14 373.619 155.433 373.112 156.02C372.605 156.593 372.352 157.407 372.352 158.46V164H370.772V157.44C370.772 155.907 370.125 155.14 368.832 155.14C368.192 155.14 367.619 155.433 367.112 156.02C366.605 156.593 366.352 157.407 366.352 158.46V164H364.792V153.86H366.352ZM385.619 162.72C386.473 162.72 387.173 162.387 387.719 161.72C388.266 161.04 388.539 160.08 388.539 158.84C388.539 157.733 388.273 156.84 387.739 156.16C387.206 155.48 386.533 155.14 385.719 155.14C384.906 155.14 384.199 155.44 383.599 156.04C383.013 156.627 382.719 157.593 382.719 158.94C382.719 160.233 383.019 161.187 383.619 161.8C384.219 162.413 384.886 162.72 385.619 162.72ZM382.719 153.86V155.4C383.426 154.267 384.473 153.7 385.859 153.7C387.206 153.7 388.259 154.193 389.019 155.18C389.793 156.153 390.179 157.373 390.179 158.84C390.179 160.4 389.773 161.68 388.959 162.68C388.159 163.667 387.113 164.16 385.819 164.16C384.486 164.16 383.453 163.593 382.719 162.46V167.94H381.159V153.86H382.719ZM398.967 158.28V157.88C398.967 157.04 398.74 156.373 398.287 155.88C397.834 155.373 397.207 155.12 396.407 155.12C395.647 155.12 395 155.393 394.467 155.94C393.934 156.487 393.62 157.267 393.527 158.28H398.967ZM399.907 162V163.48C399.12 163.893 398.16 164.1 397.027 164.1C395.494 164.1 394.254 163.633 393.307 162.7C392.374 161.753 391.907 160.507 391.907 158.96C391.907 157.347 392.327 156.073 393.167 155.14C394.007 154.207 395.087 153.74 396.407 153.74C397.674 153.74 398.68 154.147 399.427 154.96C400.174 155.773 400.547 156.927 400.547 158.42C400.547 158.847 400.514 159.24 400.447 159.6H393.527C393.647 160.6 394.027 161.367 394.667 161.9C395.307 162.433 396.147 162.7 397.187 162.7C398.32 162.7 399.227 162.467 399.907 162ZM404.516 153.86V155.64C405.049 154.387 405.969 153.76 407.276 153.76C407.516 153.76 407.703 153.773 407.836 153.8V155.36C407.556 155.267 407.269 155.22 406.976 155.22C406.269 155.22 405.683 155.547 405.216 156.2C404.749 156.853 404.516 157.607 404.516 158.46V164H402.936L402.956 153.86H404.516ZM414.94 159.32H413.18C412.326 159.32 411.686 159.487 411.26 159.82C410.833 160.153 410.62 160.573 410.62 161.08C410.62 161.587 410.786 162 411.12 162.32C411.453 162.627 411.94 162.78 412.58 162.78C413.3 162.78 413.873 162.58 414.3 162.18C414.726 161.767 414.94 161.247 414.94 160.62V159.32ZM409.7 155.98V154.4C410.46 153.933 411.46 153.7 412.7 153.7C415.246 153.7 416.52 154.993 416.52 157.58V164H414.96V162.8C414.44 163.667 413.493 164.1 412.12 164.1C411.173 164.1 410.406 163.82 409.82 163.26C409.246 162.7 408.96 161.993 408.96 161.14C408.96 160.167 409.326 159.413 410.06 158.88C410.806 158.333 411.82 158.06 413.1 158.06H414.94V157.54C414.94 156.74 414.76 156.14 414.4 155.74C414.04 155.327 413.433 155.12 412.58 155.12C411.5 155.12 410.54 155.407 409.7 155.98ZM421.503 155.14V161.08C421.503 162.16 422.01 162.7 423.023 162.7C423.543 162.7 424.003 162.547 424.403 162.24V163.74C423.963 163.98 423.47 164.1 422.923 164.1C420.923 164.1 419.923 163.08 419.923 161.04V155.14H418.303V153.86H419.923V151.34H421.503V153.86H424.303V155.14H421.503ZM433.006 153.86H434.586V164H433.006V162.24C432.473 163.493 431.413 164.12 429.826 164.12C428.826 164.12 428.033 163.827 427.446 163.24C426.873 162.64 426.586 161.84 426.586 160.84V153.86H428.166V160.44C428.166 161.173 428.353 161.733 428.726 162.12C429.099 162.507 429.606 162.7 430.246 162.7C431.086 162.7 431.753 162.407 432.246 161.82C432.753 161.233 433.006 160.44 433.006 159.44V153.86ZM439.067 153.86V155.64C439.6 154.387 440.52 153.76 441.827 153.76C442.067 153.76 442.254 153.773 442.387 153.8V155.36C442.107 155.267 441.82 155.22 441.527 155.22C440.82 155.22 440.234 155.547 439.767 156.2C439.3 156.853 439.067 157.607 439.067 158.46V164H437.487L437.507 153.86H439.067ZM449.49 159.32H447.73C446.877 159.32 446.237 159.487 445.81 159.82C445.384 160.153 445.17 160.573 445.17 161.08C445.17 161.587 445.337 162 445.67 162.32C446.004 162.627 446.49 162.78 447.13 162.78C447.85 162.78 448.424 162.58 448.85 162.18C449.277 161.767 449.49 161.247 449.49 160.62V159.32ZM444.25 155.98V154.4C445.01 153.933 446.01 153.7 447.25 153.7C449.797 153.7 451.07 154.993 451.07 157.58V164H449.51V162.8C448.99 163.667 448.044 164.1 446.67 164.1C445.724 164.1 444.957 163.82 444.37 163.26C443.797 162.7 443.51 161.993 443.51 161.14C443.51 160.167 443.877 159.413 444.61 158.88C445.357 158.333 446.37 158.06 447.65 158.06H449.49V157.54C449.49 156.74 449.31 156.14 448.95 155.74C448.59 155.327 447.984 155.12 447.13 155.12C446.05 155.12 445.09 155.407 444.25 155.98ZM458.837 164V153.86H460.417V164H458.837ZM458.877 151.42C458.69 151.22 458.597 150.973 458.597 150.68C458.597 150.387 458.69 150.14 458.877 149.94C459.077 149.74 459.324 149.64 459.617 149.64C459.91 149.64 460.157 149.74 460.357 149.94C460.557 150.14 460.657 150.387 460.657 150.68C460.657 150.973 460.557 151.22 460.357 151.42C460.157 151.607 459.91 151.7 459.617 151.7C459.324 151.7 459.077 151.607 458.877 151.42ZM464.985 153.86V155.62C465.585 154.353 466.652 153.72 468.185 153.72C469.172 153.72 469.958 154.02 470.545 154.62C471.132 155.22 471.425 156.02 471.425 157.02V164H469.845V157.44C469.845 156.693 469.652 156.127 469.265 155.74C468.892 155.34 468.398 155.14 467.785 155.14C467.025 155.14 466.365 155.433 465.805 156.02C465.258 156.607 464.985 157.42 464.985 158.46V164H463.425V153.86H464.985ZM476.406 155.14V161.08C476.406 162.16 476.912 162.7 477.926 162.7C478.446 162.7 478.906 162.547 479.306 162.24V163.74C478.866 163.98 478.372 164.1 477.826 164.1C475.826 164.1 474.826 163.08 474.826 161.04V155.14H473.206V153.86H474.826V151.34H476.406V153.86H479.206V155.14H476.406ZM488.068 158.28V157.88C488.068 157.04 487.842 156.373 487.388 155.88C486.935 155.373 486.308 155.12 485.508 155.12C484.748 155.12 484.102 155.393 483.568 155.94C483.035 156.487 482.722 157.267 482.628 158.28H488.068ZM489.008 162V163.48C488.222 163.893 487.262 164.1 486.128 164.1C484.595 164.1 483.355 163.633 482.408 162.7C481.475 161.753 481.008 160.507 481.008 158.96C481.008 157.347 481.428 156.073 482.268 155.14C483.108 154.207 484.188 153.74 485.508 153.74C486.775 153.74 487.782 154.147 488.528 154.96C489.275 155.773 489.648 156.927 489.648 158.42C489.648 158.847 489.615 159.24 489.548 159.6H482.628C482.748 160.6 483.128 161.367 483.768 161.9C484.408 162.433 485.248 162.7 486.288 162.7C487.422 162.7 488.328 162.467 489.008 162ZM493.618 153.86V155.64C494.151 154.387 495.071 153.76 496.378 153.76C496.618 153.76 496.804 153.773 496.938 153.8V155.36C496.658 155.267 496.371 155.22 496.078 155.22C495.371 155.22 494.784 155.547 494.318 156.2C493.851 156.853 493.618 157.607 493.618 158.46V164H492.038L492.058 153.86H493.618ZM500.141 153.86V155.62C500.741 154.353 501.808 153.72 503.341 153.72C504.328 153.72 505.114 154.02 505.701 154.62C506.288 155.22 506.581 156.02 506.581 157.02V164H505.001V157.44C505.001 156.693 504.808 156.127 504.421 155.74C504.048 155.34 503.554 155.14 502.941 155.14C502.181 155.14 501.521 155.433 500.961 156.02C500.414 156.607 500.141 157.42 500.141 158.46V164H498.581V153.86H500.141ZM514.842 159.32H513.082C512.229 159.32 511.589 159.487 511.162 159.82C510.735 160.153 510.522 160.573 510.522 161.08C510.522 161.587 510.689 162 511.022 162.32C511.355 162.627 511.842 162.78 512.482 162.78C513.202 162.78 513.775 162.58 514.202 162.18C514.629 161.767 514.842 161.247 514.842 160.62V159.32ZM509.602 155.98V154.4C510.362 153.933 511.362 153.7 512.602 153.7C515.149 153.7 516.422 154.993 516.422 157.58V164H514.862V162.8C514.342 163.667 513.395 164.1 512.022 164.1C511.075 164.1 510.309 163.82 509.722 163.26C509.149 162.7 508.862 161.993 508.862 161.14C508.862 160.167 509.229 159.413 509.962 158.88C510.709 158.333 511.722 158.06 513.002 158.06H514.842V157.54C514.842 156.74 514.662 156.14 514.302 155.74C513.942 155.327 513.335 155.12 512.482 155.12C511.402 155.12 510.442 155.407 509.602 155.98Z" fill="#77BBED"/>
<path d="M83.7152 151.02V152.72C82.9019 152.187 81.9286 151.92 80.7952 151.92C79.9819 151.92 79.3352 152.113 78.8552 152.5C78.3752 152.873 78.1352 153.367 78.1352 153.98C78.1352 154.3 78.1952 154.587 78.3152 154.84C78.4486 155.093 78.6752 155.333 78.9952 155.56C79.3152 155.773 79.5886 155.94 79.8152 156.06C80.0419 156.167 80.3952 156.327 80.8752 156.54C81.3286 156.74 81.6752 156.9 81.9152 157.02C82.1552 157.127 82.4619 157.307 82.8352 157.56C83.2219 157.8 83.5086 158.04 83.6952 158.28C83.8952 158.507 84.0686 158.813 84.2152 159.2C84.3752 159.573 84.4552 159.98 84.4552 160.42C84.4552 161.607 84.0486 162.527 83.2352 163.18C82.4219 163.82 81.3752 164.14 80.0952 164.14C78.6819 164.14 77.4819 163.853 76.4952 163.28V161.54C77.4686 162.273 78.6552 162.64 80.0552 162.64C80.8952 162.64 81.5552 162.453 82.0352 162.08C82.5152 161.707 82.7552 161.167 82.7552 160.46C82.7552 160.167 82.6952 159.907 82.5752 159.68C82.4686 159.44 82.2819 159.227 82.0152 159.04C81.7619 158.84 81.5152 158.68 81.2752 158.56C81.0486 158.427 80.7352 158.267 80.3352 158.08C80.2552 158.04 80.1352 157.987 79.9752 157.92C79.4019 157.667 78.9619 157.46 78.6552 157.3C78.3619 157.14 78.0086 156.907 77.5952 156.6C77.1952 156.28 76.9019 155.913 76.7152 155.5C76.5286 155.087 76.4352 154.607 76.4352 154.06C76.4352 152.913 76.8419 152.02 77.6552 151.38C78.4819 150.727 79.5152 150.4 80.7552 150.4C81.9152 150.4 82.9019 150.607 83.7152 151.02ZM93.5235 158.28V157.88C93.5235 157.04 93.2968 156.373 92.8435 155.88C92.3902 155.373 91.7635 155.12 90.9635 155.12C90.2035 155.12 89.5568 155.393 89.0235 155.94C88.4902 156.487 88.1768 157.267 88.0835 158.28H93.5235ZM94.4635 162V163.48C93.6768 163.893 92.7168 164.1 91.5835 164.1C90.0502 164.1 88.8102 163.633 87.8635 162.7C86.9302 161.753 86.4635 160.507 86.4635 158.96C86.4635 157.347 86.8835 156.073 87.7235 155.14C88.5635 154.207 89.6435 153.74 90.9635 153.74C92.2302 153.74 93.2368 154.147 93.9835 154.96C94.7302 155.773 95.1035 156.927 95.1035 158.42C95.1035 158.847 95.0702 159.24 95.0035 159.6H88.0835C88.2035 160.6 88.5835 161.367 89.2235 161.9C89.8635 162.433 90.7035 162.7 91.7435 162.7C92.8768 162.7 93.7835 162.467 94.4635 162ZM101.313 162.34C102.046 162.34 102.693 162.06 103.253 161.5C103.826 160.927 104.113 160.08 104.113 158.96C104.113 157.667 103.839 156.707 103.293 156.08C102.746 155.453 102.113 155.14 101.393 155.14C100.526 155.14 99.8394 155.487 99.3327 156.18C98.8261 156.86 98.5727 157.753 98.5727 158.86C98.5727 159.993 98.8527 160.86 99.4127 161.46C99.9727 162.047 100.606 162.34 101.313 162.34ZM104.113 153.86H105.693V163.18C105.693 164.727 105.266 165.887 104.413 166.66C103.559 167.447 102.459 167.84 101.113 167.84C99.8861 167.84 98.8394 167.633 97.9727 167.22V165.64C98.8261 166.133 99.8261 166.38 100.973 166.38C101.946 166.38 102.713 166.12 103.273 165.6C103.833 165.08 104.113 164.267 104.113 163.16V162.02C103.446 163.167 102.453 163.74 101.133 163.74C99.9727 163.74 98.9794 163.313 98.1527 162.46C97.3394 161.607 96.9327 160.42 96.9327 158.9C96.9327 157.393 97.3127 156.153 98.0727 155.18C98.8327 154.207 99.8261 153.72 101.053 153.72C102.439 153.72 103.459 154.327 104.113 155.54V153.86ZM106.869 166.46L108.729 161.98H110.829L108.249 166.46H106.869ZM119.344 162.62H125.424V164H117.164V162.66C121.298 159.54 123.364 156.94 123.364 154.86C123.364 154.033 123.124 153.4 122.644 152.96C122.164 152.507 121.518 152.28 120.704 152.28C119.651 152.28 118.611 152.673 117.584 153.46V151.88C118.531 151.147 119.618 150.78 120.844 150.78C122.018 150.78 123.004 151.12 123.804 151.8C124.604 152.48 125.004 153.447 125.004 154.7C125.004 157.06 123.118 159.7 119.344 162.62ZM128.727 159.44H133.107V151.86L128.727 159.44ZM136.607 159.44V160.82H134.667V164H133.107V160.82H127.127V159.44L132.107 150.92H134.667V159.44H136.607ZM147.291 162.72C148.117 162.72 148.817 162.413 149.391 161.8C149.977 161.187 150.271 160.207 150.271 158.86C150.271 157.58 149.971 156.64 149.371 156.04C148.771 155.44 148.111 155.14 147.391 155.14C146.551 155.14 145.851 155.48 145.291 156.16C144.744 156.827 144.471 157.787 144.471 159.04C144.471 160.133 144.737 161.02 145.271 161.7C145.804 162.38 146.477 162.72 147.291 162.72ZM150.271 149.86H151.851V164H150.271V162.5C149.551 163.607 148.511 164.16 147.151 164.16C145.804 164.16 144.744 163.66 143.971 162.66C143.211 161.66 142.831 160.447 142.831 159.02C142.831 157.433 143.237 156.153 144.051 155.18C144.864 154.193 145.911 153.7 147.191 153.7C148.511 153.7 149.537 154.267 150.271 155.4V149.86ZM161.238 158.28V157.88C161.238 157.04 161.012 156.373 160.558 155.88C160.105 155.373 159.478 155.12 158.678 155.12C157.918 155.12 157.272 155.393 156.738 155.94C156.205 156.487 155.892 157.267 155.798 158.28H161.238ZM162.178 162V163.48C161.392 163.893 160.432 164.1 159.298 164.1C157.765 164.1 156.525 163.633 155.578 162.7C154.645 161.753 154.178 160.507 154.178 158.96C154.178 157.347 154.598 156.073 155.438 155.14C156.278 154.207 157.358 153.74 158.678 153.74C159.945 153.74 160.952 154.147 161.698 154.96C162.445 155.773 162.818 156.927 162.818 158.42C162.818 158.847 162.785 159.24 162.718 159.6H155.798C155.918 160.6 156.298 161.367 156.938 161.9C157.578 162.433 158.418 162.7 159.458 162.7C160.592 162.7 161.498 162.467 162.178 162ZM172.75 159.08H177.53L177.27 158.3L175.17 151.82C175.01 152.393 174.29 154.56 173.01 158.32L172.75 159.08ZM179.17 164L177.99 160.46H172.29L171.09 164H169.35L174.05 150.52H176.29L180.91 164H179.17ZM187.699 162.72C188.512 162.72 189.186 162.38 189.719 161.7C190.252 161.02 190.519 160.133 190.519 159.04C190.519 157.787 190.239 156.827 189.679 156.16C189.132 155.48 188.439 155.14 187.599 155.14C186.879 155.14 186.219 155.44 185.619 156.04C185.019 156.64 184.719 157.58 184.719 158.86C184.719 160.207 185.006 161.187 185.579 161.8C186.166 162.413 186.872 162.72 187.699 162.72ZM184.719 149.86V155.38C185.452 154.26 186.479 153.7 187.799 153.7C189.079 153.7 190.126 154.193 190.939 155.18C191.752 156.153 192.159 157.433 192.159 159.02C192.159 160.447 191.772 161.66 190.999 162.66C190.239 163.66 189.186 164.16 187.839 164.16C186.479 164.16 185.439 163.607 184.719 162.5V164H183.139V149.86H184.719ZM196.045 153.86V155.64C196.579 154.387 197.499 153.76 198.805 153.76C199.045 153.76 199.232 153.773 199.365 153.8V155.36C199.085 155.267 198.799 155.22 198.505 155.22C197.799 155.22 197.212 155.547 196.745 156.2C196.279 156.853 196.045 157.607 196.045 158.46V164H194.465L194.485 153.86H196.045ZM201.089 164V153.86H202.669V164H201.089ZM201.129 151.42C200.942 151.22 200.849 150.973 200.849 150.68C200.849 150.387 200.942 150.14 201.129 149.94C201.329 149.74 201.575 149.64 201.869 149.64C202.162 149.64 202.409 149.74 202.609 149.94C202.809 150.14 202.909 150.387 202.909 150.68C202.909 150.973 202.809 151.22 202.609 151.42C202.409 151.607 202.162 151.7 201.869 151.7C201.575 151.7 201.329 151.607 201.129 151.42ZM205.757 164V149.86H207.337V164H205.757Z" fill="#77BBED"/>
<line x1="291.25" y1="186" x2="291.25" y2="27.9494" stroke="#77BBED" stroke-width="1.5"/>
<path d="M346.39 119.977H378.156V127.166H335V120.185C356.595 103.931 367.393 90.385 367.393 79.5485C367.393 75.2417 366.139 71.9421 363.631 69.6498C361.123 67.288 357.745 66.1071 353.495 66.1071C347.992 66.1071 342.558 68.1563 337.194 72.2547V64.0232C342.14 60.2026 347.818 58.2923 354.227 58.2923C360.357 58.2923 365.512 60.0637 369.692 63.6064C373.872 67.1491 375.962 72.1852 375.962 78.7149C375.962 91.0101 366.104 104.764 346.39 119.977Z" fill="white"/>
<path d="M388.724 70.1708V62.1476C392.765 59.5774 397.432 58.2923 402.727 58.2923C409.484 58.2923 414.709 60.0289 418.401 63.5022C422.163 66.9059 424.043 71.1433 424.043 76.2142C424.043 79.8958 423.103 83.1954 421.222 86.1129C419.411 89.0304 416.694 91.2185 413.072 92.6773C417.042 93.5803 420.177 95.4211 422.476 98.1997C424.845 100.909 426.029 104.313 426.029 108.411C426.029 113.968 424.078 118.588 420.177 122.269C416.276 125.951 410.773 127.792 403.667 127.792C397.119 127.792 391.441 126.645 386.635 124.353V116.122C391.79 118.831 397.397 120.185 403.458 120.185C407.917 120.185 411.365 119.039 413.803 116.747C416.311 114.454 417.565 111.467 417.565 107.786C417.565 104.104 416.172 101.291 413.385 99.3459C410.668 97.3314 406.732 96.3242 401.577 96.3242H397.189V89.1346H401.577C405.478 89.1346 408.752 88.0579 411.4 85.9045C414.116 83.6816 415.475 80.7294 415.475 77.0478C415.475 73.3661 414.325 70.5876 412.027 68.712C409.728 66.8365 406.558 65.8987 402.518 65.8987C397.711 65.8987 393.113 67.3227 388.724 70.1708Z" fill="white"/>
<path d="M434.474 71.9421C434.474 67.5658 435.937 63.9537 438.863 61.1056C441.858 58.1881 445.585 56.7294 450.044 56.7294C454.432 56.7294 458.055 58.1187 460.911 60.8972C463.837 63.6758 465.3 67.2533 465.3 71.6295C465.3 76.0058 463.802 79.6527 460.806 82.5702C457.811 85.4877 454.119 86.9465 449.73 86.9465C445.272 86.9465 441.614 85.5572 438.758 82.7786C435.902 80 434.474 76.3878 434.474 71.9421ZM443.46 65.4819C441.858 67.2185 441.057 69.3372 441.057 71.8379C441.057 74.3386 441.928 76.4573 443.669 78.1939C445.411 79.9305 447.536 80.7988 450.044 80.7988C452.551 80.7988 454.606 79.9305 456.209 78.1939C457.811 76.4573 458.612 74.3386 458.612 71.8379C458.612 69.3372 457.741 67.2185 456 65.4819C454.328 63.6758 452.238 62.7728 449.73 62.7728C447.222 62.7728 445.132 63.6758 443.46 65.4819Z" fill="white"/>
<path d="M526.791 59.7511V68.3994C523.726 66.8017 520.974 65.6556 518.536 64.9609C516.098 64.2663 512.893 63.919 508.923 63.919C501.329 63.919 494.99 66.4891 489.905 71.6295C484.889 76.7699 482.381 83.4732 482.381 91.7395C482.381 100.353 484.889 107.23 489.905 112.37C494.92 117.511 501.573 120.081 509.863 120.081C516.551 120.081 522.263 118.31 527 114.767V123.624C522.681 126.541 516.76 128 509.236 128C498.647 128 490.044 124.77 483.426 118.31C476.808 111.78 473.499 102.923 473.499 91.7395C473.499 81.1809 476.843 72.602 483.531 66.0029C490.288 59.3343 498.752 56 508.923 56C516.237 56 522.193 57.2504 526.791 59.7511Z" fill="white"/>
<path d="M44 76.0955V66.9612L60.7253 56.8597H68.7103V127.14H60.2937V66.1015L44 76.0955Z" fill="white"/>
<path d="M81.5771 91.7851C81.5771 80.7522 83.8071 72.0478 88.2672 65.6716C92.7992 59.2239 98.734 56 106.072 56C113.697 56 119.739 59.2239 124.2 65.6716C128.732 72.0478 130.998 80.7522 130.998 91.7851C130.998 102.746 128.839 111.522 124.523 118.113C120.207 124.704 114.056 128 106.072 128C98.662 128 92.7273 124.704 88.2672 118.113C83.8071 111.522 81.5771 102.746 81.5771 91.7851ZM94.9573 71.3672C91.864 76.1672 90.3174 82.9731 90.3174 91.7851C90.3174 100.597 91.8281 107.51 94.8494 112.525C97.8707 117.469 101.611 119.94 106.072 119.94C111.035 119.94 114.956 117.504 117.833 112.633C120.783 107.761 122.257 100.812 122.257 91.7851C122.257 82.8299 120.711 75.9881 117.617 71.2597C114.596 66.4597 110.747 64.0597 106.072 64.0597C101.755 64.0597 98.0506 66.4955 94.9573 71.3672Z" fill="white"/>
<path d="M141.998 86.3045C141.998 84.5851 142.573 83.1164 143.724 81.8985C144.947 80.6806 146.458 80.0716 148.256 80.0716C150.055 80.0716 151.566 80.6806 152.788 81.8985C154.011 83.1164 154.623 84.5851 154.623 86.3045C154.623 88.0955 154.011 89.6 152.788 90.8179C151.566 91.9642 150.055 92.5373 148.256 92.5373C146.458 92.5373 144.947 91.9642 143.724 90.8179C142.573 89.6 141.998 88.0955 141.998 86.3045ZM143.724 125.528C142.573 124.31 141.998 122.806 141.998 121.015C141.998 119.224 142.573 117.719 143.724 116.501C144.947 115.284 146.458 114.675 148.256 114.675C150.055 114.675 151.566 115.284 152.788 116.501C154.011 117.719 154.623 119.224 154.623 121.015C154.623 122.806 154.011 124.31 152.788 125.528C151.566 126.675 150.055 127.248 148.256 127.248C146.458 127.248 144.947 126.675 143.724 125.528Z" fill="white"/>
<path d="M176.889 119.725H209.692V127.14H165.128V119.94C187.428 103.176 198.578 89.206 198.578 78.0299C198.578 73.5881 197.283 70.1851 194.694 67.8209C192.104 65.3851 188.615 64.1672 184.227 64.1672C178.544 64.1672 172.933 66.2806 167.394 70.5075V62.0179C172.501 58.0776 178.364 56.1075 184.982 56.1075C191.313 56.1075 196.636 57.9343 200.952 61.5881C205.268 65.2418 207.426 70.4358 207.426 77.1702C207.426 89.8507 197.247 104.036 176.889 119.725Z" fill="white"/>
<path d="M216.29 76.0955V66.9612L233.015 56.8597H241V127.14H232.583V66.1015L216.29 76.0955Z" fill="white"/>
<defs>
<filter id="filter0_b_402_76" x="-4" y="-4" width="592" height="223" filterUnits="userSpaceOnUse" color-interpolation-filters="sRGB">
<feFlood flood-opacity="0" result="BackgroundImageFix"/>
<feGaussianBlur in="BackgroundImageFix" stdDeviation="2"/>
<feComposite in2="SourceAlpha" operator="in" result="effect1_backgroundBlur_402_76"/>
<feBlend mode="normal" in="SourceGraphic" in2="effect1_backgroundBlur_402_76" result="shape"/>
</filter>
</defs>
</svg>
