<svg width="1489" height="1020" viewBox="0 0 1489 1020" fill="none" xmlns="http://www.w3.org/2000/svg">
<path d="M1477.5 0.999999C1481.87 1 1484.14 6.21322 1481.16 9.4099L1462.58 29.3334L1442.04 50.4838C1441.09 51.4531 1439.8 52.0001 1438.45 52.0001L51.0463 52C49.8031 52 48.6045 51.5369 47.6842 50.701L24.1621 29.3333L-1.8584 10.0144C-5.72632 7.14276 -3.69519 0.999935 1.12219 0.999935L1477.5 0.999999Z" fill="#192C4F"/>
<path d="M1489 1011.17C1489 1015.06 1484.76 1017.46 1481.43 1015.46L1459 1002L1437.35 988.469C1435.89 987.555 1435 985.953 1435 984.229L1435 41.5856C1435 39.9638 1435.79 38.4429 1437.11 37.5055L1459 22L1480.73 3.17139C1483.96 0.365234 1489 2.66516 1489 6.94983L1489 1011.17Z" fill="#192C4F"/>
<path d="M0 4.83093C0 0.94446 4.23986 -1.45609 7.57248 0.543487L30 14L51.65 27.5312C53.1119 28.4449 54 30.0473 54 31.7712V974.414C54 976.036 53.2135 977.557 51.8901 978.495L30 994L8.27465 1012.83C5.03681 1015.63 0 1013.33 0 1009.05V4.83093Z" fill="#192C4F"/>
</svg>
